<?xml version="1.0" standalone="no"?>
<!DOCTYPE svg PUBLIC "-//W3C//DTD SVG 1.1//EN" "http://www.w3.org/Graphics/SVG/1.1/DTD/svg11.dtd" >
<svg xmlns="http://www.w3.org/2000/svg">
<metadata>
This is a custom SVG webfont generated by Font Squirrel.
Copyright   :  1985 1987 1994 1999 2002 Adobe Systems Incorporated All rights reserved
Designer    : Max Miedinger
Foundry URL : httpwwwadobecomtype
</metadata>
<defs>
<font id="HelveticaLTStdBlack" horiz-adv-x="1366" >
<font-face units-per-em="2048" ascent="1470" descent="-578" />
<missing-glyph horiz-adv-x="681" />
<glyph unicode=" "  horiz-adv-x="681" />
<glyph unicode="&#x09;" horiz-adv-x="681" />
<glyph unicode="&#xa0;" horiz-adv-x="681" />
<glyph unicode="!" horiz-adv-x="681" d="M123 1110v365h436v-365l-106 -569h-232zM125 0v397h422v-397h-422z" />
<glyph unicode="&#x22;" horiz-adv-x="1024" d="M203 920v555h243v-555h-243zM578 920v555h243v-555h-243z" />
<glyph unicode="#" horiz-adv-x="1351" d="M172 455v190h234l26 180h-203v191h228l61 428h178l-59 -428h176l59 428h185l-62 -428h185v-191h-211l-25 -180h182v-190h-208l-66 -455h-182l63 455h-174l-65 -455h-181l64 455h-205zM586 645h174l26 180h-176z" />
<glyph unicode="$" d="M47 459h371q0 -178 168 -213v321q-229 72 -305 111q-205 111 -205 336q0 115 41 197.5t117.5 133t159.5 77t192 42.5v127h170v-127q106 -6 196 -31.5t168 -74.5t121 -135t41 -199h-354q-4 66 -51.5 115t-120.5 47v-285q74 -23 112.5 -35t106 -38.5t105.5 -49t86 -59.5 t74 -77t44.5 -95t18.5 -119q0 -121 -43 -211t-121 -141t-172.5 -77t-210.5 -30v-198h-170v198q-233 8 -385 134.5t-154 355.5zM432 1073q0 -29 7 -49t30 -35.5t32 -21.5t45 -19.5t40 -15.5v266q-49 4 -101.5 -34t-52.5 -91zM756 233q68 0 123 37t55 99q0 127 -178 163v-299z " />
<glyph unicode="%" horiz-adv-x="2048" d="M12 1069q0 184 134.5 316.5t318.5 132.5t317 -132.5t133 -316.5q0 -186 -132 -318.5t-318 -132.5t-319.5 132.5t-133.5 318.5zM289 1069q0 -70 52 -122t124 -52q70 0 122 52t52 122t-52 121t-122 51t-123 -51t-53 -121zM483 -63l869 1593h207l-869 -1593h-207z M1133 399.5q0 184.5 134 318.5t318 134t316.5 -134t132.5 -319q0 -186 -131 -316t-318 -130q-184 0 -318 131t-134 315.5zM1409 401q0 -70 53.5 -121t123 -51t120.5 51.5t51 121t-51 121.5t-121 52q-72 0 -124 -51t-52 -123z" />
<glyph unicode="&#x26;" horiz-adv-x="1820" d="M92 371q0 303 309 458q-127 133 -127 277q0 98 45.5 173t120 116t159.5 60.5t177 19.5q209 0 350.5 -107.5t141.5 -282.5q0 -242 -240 -372l127 -131q57 49 96 123h389q-113 -215 -247 -359l336 -346h-512l-117 125q-78 -68 -214 -116t-274 -48q-221 0 -370.5 104.5 t-149.5 305.5zM502 410q0 -63 39 -99.5t104 -36.5q76 0 164 54q12 8 31 16q18 10 22 14t2 9.5t-12 17.5l-190 201q-160 -82 -160 -176zM643 1108q0 -88 125 -172q35 16 56.5 28.5t47 33t33.5 40t16.5 51t-8.5 64.5q-31 66 -127 66q-61 0 -102 -27t-41 -84z" />
<glyph unicode="'" horiz-adv-x="569" d="M162 920v555h244v-555h-244z" />
<glyph unicode="(" horiz-adv-x="796" d="M96 567q0 174 41 360.5t75 276.5t107 271h365q-193 -506 -192 -914q0 -446 186 -926h-361q-221 426 -221 932z" />
<glyph unicode=")" horiz-adv-x="796" d="M113 -365q193 506 192 914q0 446 -186 926h360q221 -426 221 -932q0 -174 -41 -360.5t-74.5 -276.5t-107.5 -271h-364z" />
<glyph unicode="*" horiz-adv-x="1138" d="M111 1059l75 225l273 -94v285h221v-285l270 104l78 -211l-285 -96l195 -239l-186 -144l-179 254l-178 -254l-188 139l186 240z" />
<glyph unicode="+" horiz-adv-x="1351" d="M160 406v237h397v391h238v-391h397v-237h-397v-406h-238v406h-397z" />
<glyph unicode="," horiz-adv-x="681" d="M119 0v422h434v-356q0 -201 -114.5 -308.5t-319.5 -117.5v178q92 12 143 59q49 45 55 123h-198z" />
<glyph unicode="-" horiz-adv-x="681" d="M66 338v373h548v-373h-548z" />
<glyph unicode="." horiz-adv-x="681" d="M123 0v422h434v-422h-434z" />
<glyph unicode="/" horiz-adv-x="569" d="M-66 -184l443 1659h258l-442 -1659h-259z" />
<glyph unicode="0" d="M57 735q2 373 178.5 551t448.5 178q289 0 457 -187t168 -540q0 -162 -33 -295t-103.5 -242.5t-194.5 -170t-294 -60.5t-294 60.5t-195.5 169t-104.5 241.5t-33 295zM483 711q0 -207 43 -314.5t158 -107.5q199 0 199 426v16q0 55 -1 86t-6.5 88.5t-18.5 92t-33.5 72.5 t-57.5 56.5t-86 18.5q-197 0 -197 -434z" />
<glyph unicode="1" d="M201 842v291q182 4 292.5 78.5t143.5 252.5h324v-1464h-426v842h-334z" />
<glyph unicode="2" d="M115 0q-10 221 172 410q76 80 196.5 163.5t206.5 137t151.5 130.5t65.5 158q0 66 -52 106t-122 40q-113 0 -162 -79t-47 -198h-383q8 596 613 596q248 0 413.5 -115.5t165.5 -351.5q0 -70 -22.5 -131t-47 -100t-84 -87t-90 -68.5t-106.5 -67.5q-23 -14 -33 -21 q-43 -27 -146.5 -86t-144.5 -88h670v-348h-1214z" />
<glyph unicode="3" d="M72 502h401q-2 -98 51.5 -155.5t153.5 -57.5q88 0 139 50t51 118q0 35 -10 61.5t-22.5 43t-41 27.5t-44 16t-52 8t-47.5 3h-49v252q96 -8 175 25t79 123q0 66 -49 97.5t-119 31.5q-78 0 -128 -39t-58 -115h-385q10 236 175 354.5t408 118.5q256 0 405.5 -109.5 t149.5 -293.5q0 -203 -168 -285q98 -39 152.5 -116.5t54.5 -184.5q0 -246 -171 -376t-468 -130q-264 0 -425.5 137.5t-157.5 395.5z" />
<glyph unicode="4" d="M51 301v342l674 801h397v-826h181v-317h-181v-301h-405v301h-666zM373 618h344v441z" />
<glyph unicode="5" d="M47 377l428 43q0 -2 2 -7t2 -7q18 -55 70.5 -86t114.5 -31q92 0 149 54t57 136q0 94 -47 151.5t-139 57.5q-131 0 -172 -80l-401 15l143 821h926v-348h-627l-47 -217q106 78 299 77q213 0 352 -122.5t139 -333.5q0 -143 -53 -250t-147.5 -166t-205 -87t-241.5 -28 q-477 0 -602 408z" />
<glyph unicode="6" d="M55 721q0 338 167 540.5t464 202.5q510 0 590 -381l-397 -24q-33 115 -172 115q-113 0 -168.5 -91.5t-53.5 -240.5q86 59 160 81.5t178 22.5q121 0 217.5 -43t153.5 -112.5t87 -150.5t30 -161q0 -252 -160 -381t-418 -129q-326 0 -502 184.5t-176 567.5zM504 461 q0 -78 57 -132.5t135 -54.5q92 0 140.5 53.5t48.5 147.5q0 86 -50.5 139.5t-129.5 53.5q-102 -2 -151.5 -59.5t-49.5 -147.5z" />
<glyph unicode="7" d="M115 1096v348h1161v-324q-201 -164 -333 -464t-142 -656h-443q59 635 498 1096h-741z" />
<glyph unicode="8" d="M59 428q0 123 58.5 197.5t175.5 130.5q-96 53 -141.5 115.5t-45.5 185.5q0 133 85 228t215.5 137t291.5 42q244 0 399.5 -112.5t155.5 -286.5q0 -223 -190 -299q242 -94 242 -338q0 -215 -171 -337t-450 -122q-272 0 -448.5 117t-176.5 342zM485 446q0 -98 77 -143 t175 -27q141 18 142 173q0 86 -53.5 136t-139.5 50q-92 0 -146.5 -48.5t-54.5 -140.5zM500 1016q0 -76 51 -113t129 -37q76 0 128 40t52 114q0 72 -50 114t-126 42q-82 0 -134 -41t-50 -119z" />
<glyph unicode="9" d="M51 954q0 252 160 381t418 129q326 0 502 -184t176 -567q0 -338 -167 -541t-464 -203q-510 0 -590 381l397 25q33 -115 172 -115q113 0 168.5 91t53.5 241q-86 -59 -160 -82t-178 -23q-121 0 -217.5 43t-153.5 113t-87 150.5t-30 160.5zM477 961q0 -86 50.5 -139.5 t129.5 -53.5q102 2 151.5 59.5t49.5 147.5q0 78 -57.5 132t-134.5 54q-92 0 -140.5 -53t-48.5 -147z" />
<glyph unicode=":" horiz-adv-x="681" d="M123 0v422h434v-422h-434zM123 651v422h434v-422h-434z" />
<glyph unicode=";" horiz-adv-x="681" d="M119 0v422h434v-356q0 -201 -114.5 -308.5t-319.5 -117.5v178q92 12 143 59q49 45 55 123h-198zM119 651v422h434v-422h-434z" />
<glyph unicode="&#x3c;" horiz-adv-x="1351" d="M154 422v203l1042 465v-263l-729 -307l729 -299v-262z" />
<glyph unicode="=" horiz-adv-x="1351" d="M160 205v237h1032v-237h-1032zM160 606v238h1032v-238h-1032z" />
<glyph unicode="&#x3e;" horiz-adv-x="1351" d="M152 -41v262l729 299l-729 307v263l1042 -465v-203z" />
<glyph unicode="?" horiz-adv-x="1251" d="M55 1036q12 233 185 363q154 115 397 114q246 0 399.5 -108.5t153.5 -308.5q0 -98 -45 -166t-106.5 -105t-122 -69.5t-97.5 -82.5t-26 -122h-377q-8 133 24.5 218t85 121t106.5 57.5t93 54t39 85.5q0 59 -44 89t-108 30q-133 0 -133 -170h-424zM393 0v397h422v-397h-422z " />
<glyph unicode="@" horiz-adv-x="1515" d="M10 737q0 330 227.5 553t555.5 223q283 0 481 -172q229 -193 229 -456q0 -262 -157 -422q-66 -66 -170.5 -120t-184.5 -54q-53 0 -87 26.5t-32 77.5q-90 -96 -200 -96q-137 0 -240.5 106.5t-103.5 255.5q0 188 116.5 329.5t300.5 141.5q164 0 252 -120l21 104h194 l-100 -598q-8 -29 -6 -51.5t31 -22.5q72 0 135 108.5t63 266.5q0 242 -152.5 377t-396.5 135q-256 0 -413.5 -167t-157.5 -425q0 -268 170 -430t436 -162q215 0 391 138h203q-233 -322 -610 -322q-334 0 -564.5 221t-230.5 555zM573 692q0 -76 42 -128t114 -52 q92 0 150.5 67.5t58.5 159.5q0 76 -45 125t-119 49q-84 0 -142.5 -68.5t-58.5 -152.5z" />
<glyph unicode="A" horiz-adv-x="1593" d="M23 0l528 1475h491l529 -1475h-481l-58 195h-481l-55 -195h-473zM643 502h305l-155 528z" />
<glyph unicode="B" horiz-adv-x="1593" d="M147 0v1475h705q133 0 234.5 -17.5t186.5 -57.5t130 -115t45 -181q0 -104 -55.5 -187t-137.5 -135q117 -31 181.5 -123t64.5 -215q0 -444 -635 -444h-719zM631 344h211q100 0 154.5 28.5t54.5 106.5q0 61 -38 93t-87 38t-142 6h-153v-272zM631 885h200q76 0 121 32.5 t45 96.5q0 33 -11 56.5t-26.5 34.5t-46 17t-52 7t-60.5 1h-170v-245z" />
<glyph unicode="C" horiz-adv-x="1593" d="M45 739q0 350 210 562t525 212q334 0 523.5 -156.5t218.5 -445.5h-459q-10 115 -79 178.5t-183 63.5q-129 0 -201 -109.5t-72 -320.5q0 -117 19.5 -199t87 -142t184.5 -60q111 0 172.5 67.5t75.5 181.5h465q-33 -285 -222.5 -447.5t-482.5 -162.5q-365 0 -573.5 209 t-208.5 569z" />
<glyph unicode="D" horiz-adv-x="1593" d="M133 0v1475h647q367 0 568.5 -176.5t201.5 -530.5q0 -768 -782 -768h-635zM616 344h103q348 0 348 397q0 225 -80 307t-278 82h-93v-786z" />
<glyph unicode="E" horiz-adv-x="1478" d="M156 0v1475h1202v-345h-719v-210h608v-345h-608v-231h747v-344h-1230z" />
<glyph unicode="F" d="M152 0v1475h1146v-345h-663v-268h528v-344h-528v-518h-483z" />
<glyph unicode="G" horiz-adv-x="1705" d="M80 719q0 356 209 575t563 219q274 0 464.5 -141t233.5 -405h-458q-53 186 -248 186q-139 0 -210 -115.5t-71 -316.5q0 -399 309 -399q78 0 154 48t94 122h-213v319h662v-815h-312l-18 145q-154 -180 -444 -180q-143 0 -270.5 47t-227.5 138.5t-158.5 239t-58.5 333.5z " />
<glyph unicode="H" horiz-adv-x="1705" d="M141 0v1475h484v-498h456v498h484v-1475h-484v571h-456v-571h-484z" />
<glyph unicode="I" horiz-adv-x="796" d="M156 0v1475h483v-1475h-483z" />
<glyph unicode="J" d="M55 641h430q0 -51 1 -77.5t4.5 -72t11.5 -70t21.5 -51t36 -37.5t52.5 -11q57 0 90 46t33 134v973h484v-906q0 -297 -143.5 -452.5t-432.5 -155.5q-319 0 -468 174q-124 146 -124 403q-1 49 4 103z" />
<glyph unicode="K" horiz-adv-x="1705" d="M154 0v1475h483v-478l424 478h567l-538 -555l596 -920h-580l-354 588l-115 -121v-467h-483z" />
<glyph unicode="L" d="M156 0v1475h483v-1131h664v-344h-1147z" />
<glyph unicode="M" horiz-adv-x="1933" d="M123 0v1475h584l260 -920l260 920h583v-1475h-434v451l6 229l25 266h-4l-268 -946h-336l-269 946h-4l21 -217l10 -229v-500h-434z" />
<glyph unicode="N" horiz-adv-x="1705" d="M141 0v1475h453l526 -805l-18 336v469h463v-1475h-453l-526 803l18 -336v-467h-463z" />
<glyph unicode="O" horiz-adv-x="1705" d="M80 750q0 346 213 554.5t559 208.5q190 0 342 -64.5t244 -174t140 -244.5t48 -285q0 -367 -218 -575.5t-556 -208.5q-352 0 -562 209t-210 580zM563 745q0 -78 13.5 -146.5t44 -134t90 -104t141.5 -38.5q150 0 220.5 114.5t70.5 308.5q0 170 -74 291q-71 117 -212 117h-9 q-102 0 -170 -65.5t-91.5 -152t-23.5 -190.5z" />
<glyph unicode="P" horiz-adv-x="1478" d="M117 0v1475h710q311 0 470 -132.5t159 -365.5q0 -246 -151.5 -382t-460.5 -136h-244v-459h-483zM600 803h201q195 0 194 172q0 156 -258 155h-137v-327z" />
<glyph unicode="Q" horiz-adv-x="1705" d="M80 750q0 346 213 554.5t559 208.5q354 0 564 -219t210 -549q0 -313 -172 -526l168 -170l-203 -215l-200 203q-170 -76 -367 -76q-354 0 -563 210t-209 579zM563 745q0 -78 13.5 -146.5t44 -134t90 -104t141.5 -38.5q35 0 74 14l-166 166l205 215l157 -160q20 74 21 188 q0 188 -79 298t-216 110q-102 0 -170 -65.5t-91.5 -152t-23.5 -190.5z" />
<glyph unicode="R" horiz-adv-x="1593" d="M125 0v1475h696q360 0 507 -99.5t147 -320.5q0 -133 -61.5 -229.5t-186.5 -131.5q49 -18 73.5 -28.5t59.5 -32t51 -46t33.5 -63.5t25 -93t7.5 -128q0 -201 10 -229q10 -29 41 -29v-45h-490q-25 66 -24 258q0 152 -48 204t-210 52h-148v-514h-483zM608 838h191 q117 0 173 32.5t56 106.5q0 76 -53 114.5t-141 38.5h-226v-292z" />
<glyph unicode="S" horiz-adv-x="1478" d="M68 455h462q14 -78 80 -117q57 -37 138 -37q92 0 146 28.5t54 80.5q0 45 -47 75.5t-121.5 50t-165 39t-180.5 53.5t-164.5 82t-122 133t-47.5 199q0 227 176.5 349t462.5 122q291 0 446.5 -129t184.5 -337h-459q-10 70 -69 100q-51 27 -125 27q-154 0 -154 -84 q0 -45 47 -76t122 -51.5t165 -41t180 -53t165 -80t122 -129t47 -190.5q0 -248 -187.5 -378t-502.5 -130q-285 0 -465 143.5t-188 350.5z" />
<glyph unicode="T" horiz-adv-x="1478" d="M63 1087v388h1352v-388h-434v-1087h-483v1087h-435z" />
<glyph unicode="U" horiz-adv-x="1705" d="M143 643v832h484v-883q0 -129 46 -199.5t181 -70.5q123 0 174 70.5t51 199.5v883h484v-834q0 -354 -170 -517t-539 -163q-356 0 -533.5 156.5t-177.5 525.5z" />
<glyph unicode="V" horiz-adv-x="1593" d="M45 1475h487l259 -981l268 981h487l-512 -1475h-485z" />
<glyph unicode="W" horiz-adv-x="2048" d="M10 1475h467l166 -912h4l176 912h400l176 -912h4l166 912h467l-367 -1475h-475l-170 856h-4l-168 -856h-475z" />
<glyph unicode="X" horiz-adv-x="1593" d="M16 0l523 766l-471 709h542l209 -377l211 377h543l-498 -709l502 -766h-543l-237 414l-238 -414h-543z" />
<glyph unicode="Y" horiz-adv-x="1593" d="M6 1475h541l254 -500l254 500h532l-549 -930v-545h-483v537z" />
<glyph unicode="Z" horiz-adv-x="1478" d="M74 0v350l706 780h-678v345h1272v-342l-717 -789h746v-344h-1329z" />
<glyph unicode="[" horiz-adv-x="796" d="M90 -365v1840h639v-304h-264v-1232h264v-304h-639z" />
<glyph unicode="\" horiz-adv-x="569" d="M-66 1475h259l442 -1659h-258z" />
<glyph unicode="]" horiz-adv-x="796" d="M68 -61h264v1232h-264v304h639v-1840h-639v304z" />
<glyph unicode="^" horiz-adv-x="1351" d="M184 692l369 772h246l368 -772l-213 -96l-278 571l-279 -571z" />
<glyph unicode="_" horiz-adv-x="1024" d="M0 -154h1024v-102h-1024v102z" />
<glyph unicode="`" horiz-adv-x="681" d="M-74 1511h426l205 -303h-281z" />
<glyph unicode="a" d="M51 293q0 115 56.5 189.5t141.5 103t184 47t184 25t141.5 32t56.5 70.5q0 88 -139 88q-137 0 -150 -105h-409q0 176 139 268.5t446 92.5q125 0 216.5 -14.5t149.5 -45t94 -65.5t52.5 -92.5t21.5 -104.5t5 -123v-501q0 -53 9.5 -80t47.5 -58v-20h-440l-20 115 q-156 -145 -404 -146q-164 0 -273.5 83t-109.5 241zM492 301q0 -41 36.5 -65.5t98.5 -24.5q106 0 151 73q38 62 38 156q0 17 -1 35q-47 -23 -139 -41t-138 -45t-46 -88z" />
<glyph unicode="b" d="M98 0v1475h426v-510q119 139 310 139q205 0 335.5 -159t130.5 -402q0 -256 -118.5 -415t-366.5 -159q-236 0 -330 183h-4v-152h-383zM514 537q0 -104 43 -182.5t137 -78.5q96 0 138 75t42 177q0 100 -43 173t-137 73q-90 0 -135 -71.5t-45 -165.5z" />
<glyph unicode="c" d="M66 526q0 268 170 423t442 155q236 0 400.5 -108.5t187.5 -331.5h-432q-2 68 -46 110q-39 43 -110 43q-186 0 -186 -293q0 -125 47 -196.5t139 -71.5q143 0 166 160h430q-27 -231 -201 -346q-154 -100 -395 -101q-268 0 -440 146.5t-172 410.5z" />
<glyph unicode="d" d="M68 516q0 262 130 425t324 163q104 0 179 -31t141 -108v510h426v-1475h-383v143q-74 -96 -150 -135t-180 -39q-233 0 -360 154.5t-127 392.5zM494 520q0 -244 168 -244q102 0 148 72t46 178q0 104 -43 176t-139 72t-138 -74t-42 -180z" />
<glyph unicode="e" d="M63 526q0 260 173.5 419t435.5 159q295 0 465 -184q166 -180 166 -466v-14h-814q0 -92 61.5 -151.5t149.5 -59.5q115 0 160 95h408q-51 -184 -217 -269.5t-377 -85.5q-268 0 -439.5 147.5t-171.5 409.5zM489 657h388q0 74 -56.5 130.5t-132.5 56.5q-94 0 -146.5 -50.5 t-52.5 -136.5z" />
<glyph unicode="f" horiz-adv-x="796" d="M18 827v246h144q0 139 25.5 228.5t84 134.5t129 61t181.5 16h182v-268q-117 0 -151 -25q-29 -22 -28 -112q0 -16 1 -35h178v-246h-178v-827h-426v827h-142z" />
<glyph unicode="g" d="M70 559q0 104 26.5 197.5t79.5 173.5t149.5 127t223.5 47q96 0 182 -46t143 -126v141h375v-864q0 -94 -5 -155.5t-23.5 -134.5t-56.5 -119t-98 -87t-156.5 -59.5t-225.5 -18.5q-264 0 -403.5 89.5t-155.5 220.5h428q0 -23 27 -47q31 -27 92 -27q92 0 132 47t40 162v88 q-117 -117 -307 -117q-215 0 -341 146.5t-126 361.5zM496 555q0 -86 43 -146.5t125 -62.5h10q84 0 126 61q44 65 44 160q0 100 -43 166t-137 66h-6q-86 0 -123 -64q-39 -65 -39 -180z" />
<glyph unicode="h" d="M98 0v1475h426v-537q131 166 326 166q416 0 416 -461v-643h-426v567q0 201 -150 201q-94 0 -130 -55.5t-36 -165.5v-547h-426z" />
<glyph unicode="i" horiz-adv-x="681" d="M127 0v1073h426v-1073h-426zM127 1210v303h426v-303h-426z" />
<glyph unicode="j" horiz-adv-x="681" d="M-41 -55q129 0 161 24.5t32 132.5v971h426v-971q0 -94 -6.5 -152.5t-30 -125t-67.5 -103t-124 -61.5t-196 -25q-80 0 -195 7v303zM152 1210v303h426v-303h-426z" />
<glyph unicode="k" d="M109 0v1475h426v-730l272 328h498l-398 -416l449 -657h-512l-230 381l-79 -80v-301h-426z" />
<glyph unicode="l" horiz-adv-x="681" d="M127 0v1475h426v-1475h-426z" />
<glyph unicode="m" horiz-adv-x="2048" d="M92 0v1073h391v-160q47 72 140.5 131.5t199.5 59.5q262 0 351 -197q141 197 370 197q225 0 318.5 -118t93.5 -351v-635h-426v547q0 121 -31 171t-113 50q-86 0 -117.5 -62.5t-31.5 -175.5v-530h-426v547q0 121 -30.5 171t-112.5 50q-86 0 -118 -62.5t-32 -175.5v-530 h-426z" />
<glyph unicode="n" d="M98 0v1073h389v-168q147 199 363 199q416 0 416 -461v-643h-426v567q0 201 -150 201q-94 0 -130 -55.5t-36 -165.5v-547h-426z" />
<glyph unicode="o" d="M72 524q0 274 165.5 427t442.5 153q283 0 447.5 -152.5t164.5 -404.5q0 -283 -169 -430.5t-441 -147.5q-268 0 -439 144.5t-171 410.5zM498 547q0 -147 49 -219t135 -72q184 0 184 291q0 121 -49 197q-47 73 -123 73h-8q-98 0 -143 -80.5t-45 -189.5z" />
<glyph unicode="p" d="M90 -365v1438h383v-160h4q41 92 137.5 141.5t198.5 49.5q231 0 355 -161t124 -398q0 -152 -44 -267.5t-117.5 -180t-159.5 -96.5t-180 -32q-166 0 -275 137v-471h-426zM508 547q0 -115 46 -183.5t128 -68.5q84 0 134 66.5t50 177.5q0 125 -49 187t-137 62q-76 0 -124 -66 t-48 -175z" />
<glyph unicode="q" d="M55 551q0 225 127 389t346 164q250 0 346 -191h5v160h383v-1438h-426v469q-63 -78 -135 -106.5t-181 -28.5q-193 0 -329 155t-136 427zM481 547q0 -256 189 -256q86 0 131 77.5t45 170.5q0 100 -42 173.5t-134 73.5q-96 0 -142.5 -69.5t-46.5 -169.5z" />
<glyph unicode="r" horiz-adv-x="909" d="M106 0v1073h388v-217h4q88 248 329 248l56 -6v-426q-86 12 -88 12q-135 0 -199 -71.5t-64 -241.5v-371h-426z" />
<glyph unicode="s" horiz-adv-x="1251" d="M68 334h405q0 -63 45 -98q43 -33 105 -33q135 0 135 96q0 39 -49.5 64.5t-122 37t-157.5 33t-157.5 52t-122 98t-49.5 166t47.5 171t125 110.5t161.5 55.5t174 17.5q504 0 533 -338h-387q-6 49 -41 78q-33 27 -86 26q-121 0 -121 -75q0 -39 69.5 -63.5t169 -45 t199.5 -52.5t170 -104.5t70 -185.5q0 -174 -145.5 -274.5t-432.5 -100.5q-100 0 -186 17.5t-166 56.5t-129 113t-57 178z" />
<glyph unicode="t" horiz-adv-x="909" d="M29 827v246h157v334h420v-334h205v-246h-205v-389q0 -78 23.5 -105.5t109.5 -27.5h68v-305q-152 -8 -242 -9h-13q-83 0 -155 12q-78 13 -114.5 35.5t-63 72t-33 109t-6.5 159.5v448h-151z" />
<glyph unicode="u" d="M98 420v653h426v-579q0 -106 37 -150.5t117 -44.5q88 0 125 63.5t37 194.5v516h426v-1073h-396v158q-78 -109 -163.5 -149t-223.5 -40q-180 0 -282.5 113t-102.5 338z" />
<glyph unicode="v" horiz-adv-x="1251" d="M20 1073h426l189 -678l186 678h410l-363 -1073h-475z" />
<glyph unicode="w" horiz-adv-x="1933" d="M43 1073h416l164 -663h4l166 663h360l164 -663h4l166 663h403l-342 -1073h-415l-166 629h-4l-150 -629h-416z" />
<glyph unicode="x" d="M55 0l385 561l-354 512h473l135 -268l144 268h467l-367 -510l371 -563h-475l-152 307l-156 -307h-471z" />
<glyph unicode="y" horiz-adv-x="1251" d="M12 1073h428l189 -661l186 661h410l-344 -1001q-33 -98 -52.5 -148.5t-52.5 -111t-64.5 -85t-85 -51t-120 -34t-162.5 -7.5q-45 0 -111.5 4.5t-76.5 4.5v297q16 0 44.5 -1t43.5 -1q100 0 127 34q12 16 12 42q0 32 -18 81z" />
<glyph unicode="z" horiz-adv-x="1138" d="M53 0v285l486 477h-443v311h967v-297l-469 -465h491v-311h-1032z" />
<glyph unicode="{" horiz-adv-x="796" d="M51 567v4q86 23 120 78.5t34 161.5v410q0 59 4 97t18.5 76t39 56t64.5 37.5t98 22.5t138 8.5t185 -5.5v-4q-88 -29 -121 -83t-33 -164v-412q0 -125 -35 -190.5t-133 -88.5v-4q98 -27 133 -90t35 -213v-381q0 -106 34 -162.5t120 -80.5v-5q-80 -6 -146.5 -7t-119 5.5 t-92.5 13.5t-69.5 24.5t-50 29.5t-34 40t-20.5 46t-10 54t-4 58.5t-1 65.5v361q0 113 -31 164.5t-123 76.5z" />
<glyph unicode="|" horiz-adv-x="569" d="M162 -512v2048h244v-2048h-244z" />
<glyph unicode="}" horiz-adv-x="796" d="M45 -360q88 29 121 83t33 164v412q0 125 34.5 190.5t133.5 88.5v4q-98 27 -133 90t-35 213v381q0 106 -34 162.5t-120 80.5v4q80 6 146.5 7.5t118.5 -5t92 -13.5t70 -24.5t50.5 -29.5t33.5 -40t20.5 -46.5t10.5 -54t4 -58t1 -65.5v-361q0 -113 30.5 -165t122.5 -76v-4 q-86 -23 -119.5 -78.5t-33.5 -161.5v-410q0 -59 -4 -97t-18.5 -76t-39 -56t-64.5 -37.5t-98.5 -23t-138 -8.5t-184.5 5v5z" />
<glyph unicode="~" horiz-adv-x="1351" d="M160 465q137 254 305 254q84 0 235 -68q156 -68 195 -67q25 0 45.5 8t38.5 28.5t29.5 34t29 43t23.5 37.5l131 -149q-41 -63 -57.5 -87t-56.5 -70t-84 -64.5t-97 -18.5q-104 0 -235.5 67.5t-192.5 67.5q-23 0 -44.5 -9t-34.5 -18.5t-30.5 -32t-24.5 -32.5t-23.5 -40 t-20.5 -36z" />
<glyph unicode="&#xa1;" horiz-adv-x="681" d="M123 -49l104 581h230l102 -581v-346h-436v346zM129 676v397h424v-397h-424z" />
<glyph unicode="&#xa2;" d="M72 528q0 293 174 434.5t444 141.5q47 0 146 -12l104 249h272l-141 -327q168 -111 201 -342h-410l-190 -426h43q145 29 164 174h407q-31 -242 -193.5 -348.5t-474.5 -102.5l-112 -270h-277l142 332q-141 63 -220 199t-79 298zM483 547q0 -150 62 -236l225 498 q-43 18 -88 18q-98 0 -148.5 -76.5t-50.5 -203.5z" />
<glyph unicode="&#xa3;" d="M68 653v185h122q-70 121 -69 211q0 119 50 206.5t135 137t183.5 73t210.5 23.5q580 0 592 -518h-389q-4 98 -47 145q-47 51 -141 51q-74 0 -122 -47t-32 -119q14 -45 62 -131l16 -32h213v-185h-188q-20 -139 -129 -223l-19 -14q8 0 41 5t49 5q63 0 164 -20 q25 -4 62.5 -15.5t68.5 -18.5t60 -7q92 0 194 94l164 -342q-53 -53 -150.5 -97.5t-167.5 -44.5q-115 0 -256 54q-10 4 -31.5 12t-29.5 10t-25.5 8.5t-25.5 9.5t-22.5 7t-22.5 6t-21.5 4t-22.5 3t-21.5 2t-24.5 1q-25 0 -45.5 -2t-42 -8t-32.5 -9t-36 -15.5t-31 -16.5 t-36.5 -21.5t-36.5 -21.5l-166 326q104 70 149 142.5t29 186.5h-182z" />
<glyph unicode="&#xa4;" horiz-adv-x="1351" d="M156 281l90 90q-76 135 -76 262q0 143 76 268l-90 88l161 164l91 -90q129 78 264 78q150 0 274 -78l90 90l158 -164l-90 -88q78 -125 78 -266q0 -154 -78 -264l90 -90l-158 -162l-90 90q-133 -80 -264 -80q-152 0 -274 80l-91 -90zM424 634.5q0 -102.5 72.5 -177 t179 -74.5t179.5 74.5t73 177t-73 177.5t-179.5 75t-179 -75t-72.5 -177.5z" />
<glyph unicode="&#xa5;" d="M-2 399v195h455l-101 194h-354v195h252l-252 492h473l217 -500l215 500h465l-250 -492h250v-195h-354l-101 -194h455v-195h-473v-399h-426v399h-471z" />
<glyph unicode="&#xa6;" horiz-adv-x="569" d="M162 358h244v-716h-244v716zM162 666v716h244v-716h-244z" />
<glyph unicode="&#xa7;" d="M150 586q0 106 60 184t150 111q-139 115 -139 284q0 119 70.5 201t173 114.5t225.5 32.5q180 0 302 -89t143 -261q6 -18 6 -41h-322q-6 154 -137 154q-53 0 -95 -22.5t-42 -69.5q0 -43 36.5 -75t96 -54.5t130.5 -46t142.5 -58.5t131 -80t96 -119.5t36.5 -172.5 q0 -213 -200 -304q143 -111 143 -274q0 -152 -135 -251t-326 -99q-207 0 -341 97t-142 298h317q6 -72 41 -113q39 -45 111 -45q152 0 152 99q0 41 -38 71.5t-98.5 51t-133 42t-145.5 54.5t-133.5 78t-98 123t-37.5 180zM436 637q0 -37 22.5 -59.5t71.5 -45.5l287 -124 q41 6 76 37.5t35 68.5q0 63 -66 92l-315 142q-45 -14 -78 -43t-33 -68z" />
<glyph unicode="&#xa8;" horiz-adv-x="681" d="M-59 1221v266h346v-266h-346zM408 1221v266h346v-266h-346z" />
<glyph unicode="&#xa9;" horiz-adv-x="1638" d="M43 737.5q0 323.5 226.5 549.5t550 226t549.5 -226t226 -549.5t-226 -550t-549.5 -226.5t-550 226.5t-226.5 550zM248 737q0 -260 159.5 -426t411.5 -166q250 0 411 166t161 426t-161 426t-411 166q-252 0 -411.5 -166t-159.5 -426zM422 743q0 197 115.5 323t310.5 126 q141 0 241.5 -79t124.5 -214h-176q-12 68 -64 104.5t-128 36.5q-111 0 -170.5 -84t-59.5 -208q0 -119 64.5 -210.5t171.5 -91.5q72 0 127 42t59 110h176q-16 -137 -119.5 -219t-242.5 -82q-193 0 -311.5 128t-118.5 318z" />
<glyph unicode="&#xaa;" horiz-adv-x="819" d="M4 1028q0 82 51 129t125 62.5t146.5 21.5t124 20.5t51.5 47.5q0 51 -90 51t-99 -62h-266q0 104 88 158q96 57 293 57q96 0 162.5 -14t103.5 -34.5t56.5 -58.5t23.5 -72t4 -87v-301q0 -53 37 -76v-18h-285l-14 70q-102 -88 -262 -88q-106 0 -178 49t-72 145zM281 1032 q0 -23 28.5 -38t69.5 -15q133 0 123 158q-18 -8 -81 -20.5t-101.5 -32t-38.5 -52.5z" />
<glyph unicode="&#xab;" d="M246 373v299l375 246v-269l-207 -133l207 -121v-264zM745 373v299l375 246v-269l-207 -133l207 -121v-264z" />
<glyph unicode="&#xac;" horiz-adv-x="1351" d="M160 606v238h1032v-598h-238v360h-794z" />
<glyph unicode="&#xad;" horiz-adv-x="681" d="M66 338v373h548v-373h-548z" />
<glyph unicode="&#xae;" horiz-adv-x="1638" d="M43 737.5q0 321.5 226.5 548.5t549.5 227q322 0 549 -227t227 -548.5t-227 -549t-549 -227.5q-324 0 -550 227.5t-226 549zM248 737q0 -260 159.5 -426t411.5 -166q250 0 411 166t161 426t-161 426t-411 166q-252 0 -411.5 -166t-159.5 -426zM500 315v838h405 q170 0 248 -56.5t78 -199.5q0 -113 -57.5 -166t-172.5 -61l203 -355h-203l-186 355h-139v-355h-176zM676 795h231q78 -2 119 24.5t41 100.5q0 37 -15.5 60.5t-49 31.5t-56 10t-65.5 2h-15h-190v-229z" />
<glyph unicode="&#xaf;" horiz-adv-x="681" d="M-39 1268v184h772v-184h-772z" />
<glyph unicode="&#xb0;" horiz-adv-x="819" d="M102 1157q-2 125 89.5 216t218.5 91t217 -91t90 -216q0 -127 -90 -217t-217 -90t-217.5 90t-90.5 217zM264 1151q2 -63 41 -101t102.5 -38t105.5 37.5t42 101.5q0 61 -44 106.5t-105.5 45.5t-102.5 -45.5t-39 -106.5z" />
<glyph unicode="&#xb1;" horiz-adv-x="1351" d="M160 0v238h1032v-238h-1032zM160 668v237h397v330h238v-330h397v-237h-397v-344h-238v344h-397z" />
<glyph unicode="&#xb2;" horiz-adv-x="819" d="M14 635q-6 133 113 246q59 57 169 121.5t172 116.5t62 116q0 39 -33.5 62.5t-78.5 23.5q-137 0 -137 -166h-248q6 358 397 358q162 0 269.5 -69.5t107.5 -210.5q0 -51 -17.5 -92t-56.5 -76t-69.5 -54.5t-88.5 -52.5q-12 -6 -18 -10q-25 -14 -92.5 -50t-95.5 -54h436v-209 h-791z" />
<glyph unicode="&#xb3;" horiz-adv-x="819" d="M12 936h262q-4 -59 33 -94q37 -33 101 -33q57 0 89.5 29.5t32.5 70.5q0 35 -15 56.5t-48 28.5t-52.5 9.5t-56.5 2.5v149q63 -4 113.5 15.5t50.5 74.5q0 76 -108.5 76t-120.5 -92h-250q6 141 112.5 212.5t266.5 71.5q166 0 263 -65.5t97 -175.5q0 -123 -108 -172 q135 -49 135 -180q0 -147 -111.5 -225.5t-304.5 -78.5q-172 0 -277.5 82t-103.5 238z" />
<glyph unicode="&#xb4;" horiz-adv-x="681" d="M135 1208l205 303h428l-352 -303h-281z" />
<glyph unicode="&#xb5;" d="M98 -365v1438h426v-579q0 -106 37 -150.5t117 -44.5q88 0 125 63.5t37 194.5v516h426v-1073h-396v158q-78 -106 -158.5 -146.5t-187.5 -36.5v-340h-426z" />
<glyph unicode="&#xb6;" horiz-adv-x="1740" d="M111 1110q0 205 131 285t370 80h836v-336h-102v-1504h-336v1504h-170v-1504h-336v1125q-178 0 -285.5 94t-107.5 256z" />
<glyph unicode="&#xb7;" horiz-adv-x="681" d="M74 524.5q0 108.5 78.5 187.5t187.5 79t187.5 -79t78.5 -187.5t-78.5 -187.5t-187.5 -79t-187.5 79t-78.5 187.5z" />
<glyph unicode="&#xb8;" horiz-adv-x="681" d="M57 -418l43 94q18 -4 54 -16t65 -18.5t55 -6.5q51 0 82 23q43 33 19 80q-31 57 -113 41q-23 -4 -49 -17l-51 50l112 188h119l-80 -131q29 12 123 4q70 -6 118 -62.5t28 -125.5q-23 -76 -96.5 -118t-159.5 -42q-111 0 -269 57z" />
<glyph unicode="&#xb9;" horiz-adv-x="819" d="M164 1141v174q117 2 188.5 47t93.5 151h211v-878h-276v506h-217z" />
<glyph unicode="&#xba;" horiz-adv-x="819" d="M12 1167q0 164 107.5 255t288.5 91q184 0 291.5 -91t107.5 -242q0 -170 -110.5 -258t-286.5 -88q-174 0 -286 86.5t-112 246.5zM289 1180q0 -86 32.5 -130t88.5 -44q121 0 120 174q0 72 -32.5 117.5t-85.5 43.5q-63 0 -93 -47.5t-30 -113.5z" />
<glyph unicode="&#xbb;" d="M246 131v268l207 133l-207 121v265l375 -242v-299zM745 131v268l207 133l-207 121v265l375 -242v-299z" />
<glyph unicode="&#xbc;" horiz-adv-x="2048" d="M82 1141v174q117 2 188.5 47t94.5 151h210v-878h-276v506h-217zM477 -31l826 1495h200l-825 -1495h-201zM1153 180v205l438 481h258v-495h117v-191h-117v-180h-264v180h-432zM1362 371h223v264z" />
<glyph unicode="&#xbd;" horiz-adv-x="2048" d="M82 1141v174q117 2 188.5 47t94.5 151h210v-878h-276v506h-217zM395 -31l826 1495h200l-825 -1495h-201zM1174 0q-6 133 112 246q59 57 169 121.5t172.5 117t62.5 115.5q0 39 -34 62.5t-79 23.5q-137 0 -137 -166h-248q6 358 397 359q162 0 269.5 -70t107.5 -211 q0 -51 -17.5 -92t-56.5 -76t-69.5 -54.5t-87.5 -51.5q-12 -6 -19 -11q-25 -14 -92.5 -50t-95.5 -54h436v-209h-790z" />
<glyph unicode="&#xbe;" horiz-adv-x="2048" d="M82 887h262q-4 -59 33 -94q37 -33 100 -33q57 0 90 29.5t33 70.5q0 35 -15.5 56.5t-48 28.5t-52 9t-56.5 2v150q63 -4 113.5 15.5t50.5 74.5q0 76 -108.5 76t-121.5 -92h-249q6 141 112.5 212.5t266.5 71.5q166 0 263 -65.5t97 -175.5q0 -123 -109 -172q135 -49 136 -181 q0 -147 -112 -225t-304 -78q-172 0 -277.5 82t-103.5 238zM559 -31l825 1495h201l-825 -1495h-201zM1153 180v205l438 481h258v-495h117v-191h-117v-180h-264v180h-432zM1362 371h223v264z" />
<glyph unicode="&#xbf;" horiz-adv-x="1251" d="M61 -25q0 72 25 128.5t61.5 90t82.5 62.5t89 52.5t78 51t52.5 67.5t9.5 93h377q8 -113 -14.5 -191.5t-60.5 -114.5t-85 -63.5t-89 -43t-71 -46t-29 -77.5q0 -59 44 -89t108 -30q137 0 133 170h424q-12 -233 -176 -355t-406 -122q-246 0 -399.5 108t-153.5 309zM434 674 v399h422v-399h-422z" />
<glyph unicode="&#xc0;" horiz-adv-x="1593" d="M23 0l528 1475h491l529 -1475h-481l-58 195h-481l-55 -195h-473zM383 1913h426l205 -303h-281zM643 502h305l-155 528z" />
<glyph unicode="&#xc1;" horiz-adv-x="1593" d="M23 0l528 1475h491l529 -1475h-481l-58 195h-481l-55 -195h-473zM592 1610l205 303h428l-353 -303h-280zM643 502h305l-155 528z" />
<glyph unicode="&#xc2;" horiz-adv-x="1593" d="M23 0l528 1475h491l529 -1475h-481l-58 195h-481l-55 -195h-473zM387 1610l248 303h336l250 -303h-303l-115 155l-115 -155h-301zM643 502h305l-155 528z" />
<glyph unicode="&#xc3;" horiz-adv-x="1593" d="M23 0l528 1475h491l529 -1475h-481l-58 195h-481l-55 -195h-473zM401 1610q14 115 79 201.5t173 86.5q45 0 84 -10t91.5 -31.5t80.5 -29.5q53 -16 89 7.5t42 59.5h164q-16 -121 -78.5 -196.5t-177.5 -75.5q-86 0 -198 49q-41 18 -73 23.5t-49.5 1.5t-31.5 -20.5 t-19.5 -29t-13.5 -36.5h-162zM643 502h305l-155 528z" />
<glyph unicode="&#xc4;" horiz-adv-x="1593" d="M23 0l528 1475h491l529 -1475h-481l-58 195h-481l-55 -195h-473zM397 1622v266h346v-266h-346zM643 502h305l-155 528zM864 1622v266h346v-266h-346z" />
<glyph unicode="&#xc5;" horiz-adv-x="1593" d="M23 0l528 1475h491l529 -1475h-481l-58 195h-481l-55 -195h-473zM567 1845q0 94 69 162t163 68t161.5 -68t67.5 -162t-67.5 -161.5t-161.5 -67.5t-163 67.5t-69 161.5zM643 502h305l-155 528zM690 1845q0 -43 33 -74.5t76 -31.5t74.5 32.5t31.5 73.5t-31.5 74t-74.5 33 t-76 -32t-33 -75z" />
<glyph unicode="&#xc6;" horiz-adv-x="2048" d="M6 0l492 1475h1482v-345h-598v-210h494v-345h-494v-231h627v-344h-1069v213h-397l-64 -213h-473zM633 520h307v610h-131z" />
<glyph unicode="&#xc7;" horiz-adv-x="1593" d="M45 739q0 350 210 562t525 212q334 0 523.5 -156.5t218.5 -445.5h-459q-10 115 -79 178.5t-183 63.5q-129 0 -201 -109.5t-72 -320.5q0 -117 19.5 -199t87 -142t184.5 -60q111 0 172.5 67.5t75.5 181.5h465q-33 -285 -222.5 -447.5t-482.5 -162.5h-2l-55 -92q29 12 123 4 q70 -6 118 -62.5t27 -125.5q-23 -76 -96.5 -118t-159.5 -42q-111 0 -268 57l43 94q18 -4 54 -16t65 -18.5t55 -6.5q51 0 82 23q43 33 18 80q-31 57 -112 41q-23 -4 -49 -17l-52 50l95 157q-313 31 -490.5 235.5t-177.5 534.5z" />
<glyph unicode="&#xc8;" horiz-adv-x="1478" d="M156 0v1475h1202v-345h-719v-210h608v-345h-608v-231h747v-344h-1230zM326 1913h426l204 -303h-280z" />
<glyph unicode="&#xc9;" horiz-adv-x="1478" d="M156 0v1475h1202v-345h-719v-210h608v-345h-608v-231h747v-344h-1230zM535 1610l204 303h428l-352 -303h-280z" />
<glyph unicode="&#xca;" horiz-adv-x="1478" d="M156 0v1475h1202v-345h-719v-210h608v-345h-608v-231h747v-344h-1230zM330 1610l248 303h335l250 -303h-303l-115 155l-114 -155h-301z" />
<glyph unicode="&#xcb;" horiz-adv-x="1478" d="M156 0v1475h1202v-345h-719v-210h608v-345h-608v-231h747v-344h-1230zM340 1622v266h346v-266h-346zM807 1622v266h346v-266h-346z" />
<glyph unicode="&#xcc;" horiz-adv-x="796" d="M-16 1913h426l204 -303h-280zM156 0v1475h483v-1475h-483z" />
<glyph unicode="&#xcd;" horiz-adv-x="796" d="M156 0v1475h483v-1475h-483zM193 1610l204 303h428l-352 -303h-280z" />
<glyph unicode="&#xce;" horiz-adv-x="796" d="M-12 1610l248 303h335l250 -303h-303l-115 155l-114 -155h-301zM156 0v1475h483v-1475h-483z" />
<glyph unicode="&#xcf;" horiz-adv-x="796" d="M-2 1622v266h346v-266h-346zM156 0v1475h483v-1475h-483zM465 1622v266h346v-266h-346z" />
<glyph unicode="&#xd0;" horiz-adv-x="1593" d="M0 571v406h133v498h647q367 0 568.5 -176.5t201.5 -530.5q0 -768 -782 -768h-635v571h-133zM616 344h103q348 0 348 397q0 225 -80 307t-278 82h-93v-153h215v-406h-215v-227z" />
<glyph unicode="&#xd1;" horiz-adv-x="1705" d="M141 0v1475h453l526 -805l-18 336v469h463v-1475h-453l-526 803l18 -336v-467h-463zM457 1610q14 115 78.5 201.5t173.5 86.5q45 0 83.5 -10t91 -31.5t81.5 -29.5q53 -16 89 7.5t42 59.5h164q-16 -121 -79 -196.5t-177 -75.5q-86 0 -199 49q-41 18 -73 23.5t-49 1.5 t-31.5 -20.5t-19.5 -29t-14 -36.5h-161z" />
<glyph unicode="&#xd2;" horiz-adv-x="1705" d="M80 750q0 346 213 554.5t559 208.5q190 0 342 -64.5t244 -174t140 -244.5t48 -285q0 -367 -218 -575.5t-556 -208.5q-352 0 -562 209t-210 580zM438 1913h426l205 -303h-281zM563 745q0 -78 13.5 -146.5t44 -134t90 -104t141.5 -38.5q150 0 220.5 114.5t70.5 308.5 q0 170 -74 291t-221 117q-102 0 -170 -65.5t-91.5 -152t-23.5 -190.5z" />
<glyph unicode="&#xd3;" horiz-adv-x="1705" d="M80 750q0 346 213 554.5t559 208.5q190 0 342 -64.5t244 -174t140 -244.5t48 -285q0 -367 -218 -575.5t-556 -208.5q-352 0 -562 209t-210 580zM563 745q0 -78 13.5 -146.5t44 -134t90 -104t141.5 -38.5q150 0 220.5 114.5t70.5 308.5q0 170 -74 291t-221 117 q-102 0 -170 -65.5t-91.5 -152t-23.5 -190.5zM647 1610l205 303h428l-352 -303h-281z" />
<glyph unicode="&#xd4;" horiz-adv-x="1705" d="M80 750q0 346 213 554.5t559 208.5q190 0 342 -64.5t244 -174t140 -244.5t48 -285q0 -367 -218 -575.5t-556 -208.5q-352 0 -562 209t-210 580zM442 1610l248 303h336l250 -303h-303l-115 155l-115 -155h-301zM563 745q0 -78 13.5 -146.5t44 -134t90 -104t141.5 -38.5 q150 0 220.5 114.5t70.5 308.5q0 170 -74 291t-221 117q-102 0 -170 -65.5t-91.5 -152t-23.5 -190.5z" />
<glyph unicode="&#xd5;" horiz-adv-x="1705" d="M80 750q0 346 213 554.5t559 208.5q190 0 342 -64.5t244 -174t140 -244.5t48 -285q0 -367 -218 -575.5t-556 -208.5q-352 0 -562 209t-210 580zM457 1610q14 115 78.5 201.5t173.5 86.5q45 0 83.5 -10t91 -31.5t81.5 -29.5q53 -16 89 7.5t42 59.5h164 q-16 -121 -79 -196.5t-177 -75.5q-86 0 -199 49q-41 18 -73 23.5t-49 1.5t-31.5 -20.5t-19.5 -29t-14 -36.5h-161zM563 745q0 -78 13.5 -146.5t44 -134t90 -104t141.5 -38.5q150 0 220.5 114.5t70.5 308.5q0 170 -74 291t-221 117q-102 0 -170 -65.5t-91.5 -152 t-23.5 -190.5z" />
<glyph unicode="&#xd6;" horiz-adv-x="1705" d="M80 750q0 346 213 554.5t559 208.5q190 0 342 -64.5t244 -174t140 -244.5t48 -285q0 -367 -218 -575.5t-556 -208.5q-352 0 -562 209t-210 580zM453 1622v266h346v-266h-346zM563 745q0 -78 13.5 -146.5t44 -134t90 -104t141.5 -38.5q150 0 220.5 114.5t70.5 308.5 q0 170 -74 291t-221 117q-102 0 -170 -65.5t-91.5 -152t-23.5 -190.5zM920 1622v266h346v-266h-346z" />
<glyph unicode="&#xd7;" horiz-adv-x="1351" d="M162 170l348 348l-348 348l166 168l348 -348l346 348l168 -168l-348 -346l348 -348l-168 -166l-346 346l-348 -346z" />
<glyph unicode="&#xd8;" horiz-adv-x="1705" d="M80 750q0 346 213 554.5t559 208.5q217 0 395 -94l135 187l154 -105l-139 -188q100 -86 164.5 -244t64.5 -324q0 -369 -217 -576.5t-557 -207.5q-231 0 -385 84l-145 -201l-150 99l147 202q-239 210 -239 605zM563 745q0 -147 31 -225l420 578q-63 55 -166 55 t-170.5 -65.5t-91 -152t-23.5 -190.5zM702 367q66 -45 150 -45q139 0 215 116.5t76 306.5q0 119 -25 189z" />
<glyph unicode="&#xd9;" horiz-adv-x="1705" d="M143 643v832h484v-883q0 -129 46 -199.5t181 -70.5q123 0 174 70.5t51 199.5v883h484v-834q0 -354 -170 -517t-539 -163q-356 0 -533.5 156.5t-177.5 525.5zM438 1913h426l205 -303h-281z" />
<glyph unicode="&#xda;" horiz-adv-x="1705" d="M143 643v832h484v-883q0 -129 46 -199.5t181 -70.5q123 0 174 70.5t51 199.5v883h484v-834q0 -354 -170 -517t-539 -163q-356 0 -533.5 156.5t-177.5 525.5zM647 1610l205 303h428l-352 -303h-281z" />
<glyph unicode="&#xdb;" horiz-adv-x="1705" d="M143 643v832h484v-883q0 -129 46 -199.5t181 -70.5q123 0 174 70.5t51 199.5v883h484v-834q0 -354 -170 -517t-539 -163q-356 0 -533.5 156.5t-177.5 525.5zM442 1610l248 303h336l250 -303h-303l-115 155l-115 -155h-301z" />
<glyph unicode="&#xdc;" horiz-adv-x="1705" d="M143 643v832h484v-883q0 -129 46 -199.5t181 -70.5q123 0 174 70.5t51 199.5v883h484v-834q0 -354 -170 -517t-539 -163q-356 0 -533.5 156.5t-177.5 525.5zM453 1622v266h346v-266h-346zM920 1622v266h346v-266h-346z" />
<glyph unicode="&#xdd;" horiz-adv-x="1593" d="M6 1475h541l254 -500l254 500h532l-549 -930v-545h-483v537zM592 1610l205 303h428l-353 -303h-280z" />
<glyph unicode="&#xde;" horiz-adv-x="1478" d="M117 0v1475h483v-205h227q311 0 470 -132t159 -366q0 -246 -151.5 -382t-460.5 -136h-244v-254h-483zM600 598h201q195 0 194 172q0 156 -258 156h-137v-328z" />
<glyph unicode="&#xdf;" d="M98 0v1001q0 512 566 512q240 0 387 -99t147 -284q0 -205 -182 -290q145 -55 206.5 -148.5t61.5 -249.5q0 -223 -137 -348t-338 -125q-88 0 -176 19v264q123 -20 174 33t51 178q0 119 -51 175t-170 54v234q162 -4 162 147q0 68 -35 111t-105 43q-39 0 -66.5 -13.5 t-40.5 -29t-19.5 -49t-7.5 -54t-1 -65.5v-1016h-426z" />
<glyph unicode="&#xe0;" d="M51 293q0 115 56.5 189.5t141.5 103t184 47t184 25t141.5 32t56.5 70.5q0 88 -139 88q-137 0 -150 -105h-409q0 176 139 268.5t446 92.5q125 0 216.5 -14.5t149.5 -45t94 -65.5t52.5 -92.5t21.5 -104.5t5 -123v-501q0 -53 9.5 -80t47.5 -58v-20h-440l-20 115 q-156 -145 -404 -146q-164 0 -273.5 83t-109.5 241zM268 1511h426l205 -303h-281zM492 301q0 -41 36.5 -65.5t98.5 -24.5q106 0 151 72.5t37 191.5q-47 -23 -139 -41t-138 -45t-46 -88z" />
<glyph unicode="&#xe1;" d="M51 293q0 115 56.5 189.5t141.5 103t184 47t184 25t141.5 32t56.5 70.5q0 88 -139 88q-137 0 -150 -105h-409q0 176 139 268.5t446 92.5q125 0 216.5 -14.5t149.5 -45t94 -65.5t52.5 -92.5t21.5 -104.5t5 -123v-501q0 -53 9.5 -80t47.5 -58v-20h-440l-20 115 q-156 -145 -404 -146q-164 0 -273.5 83t-109.5 241zM477 1208l205 303h428l-352 -303h-281zM492 301q0 -41 36.5 -65.5t98.5 -24.5q106 0 151 72.5t37 191.5q-47 -23 -139 -41t-138 -45t-46 -88z" />
<glyph unicode="&#xe2;" d="M51 293q0 115 56.5 189.5t141.5 103t184 47t184 25t141.5 32t56.5 70.5q0 88 -139 88q-137 0 -150 -105h-409q0 176 139 268.5t446 92.5q125 0 216.5 -14.5t149.5 -45t94 -65.5t52.5 -92.5t21.5 -104.5t5 -123v-501q0 -53 9.5 -80t47.5 -58v-20h-440l-20 115 q-156 -145 -404 -146q-164 0 -273.5 83t-109.5 241zM272 1208l248 303h336l250 -303h-303l-115 156l-115 -156h-301zM492 301q0 -41 36.5 -65.5t98.5 -24.5q106 0 151 72.5t37 191.5q-47 -23 -139 -41t-138 -45t-46 -88z" />
<glyph unicode="&#xe3;" d="M51 293q0 115 56.5 189.5t141.5 103t184 47t184 25t141.5 32t56.5 70.5q0 88 -139 88q-137 0 -150 -105h-409q0 176 139 268.5t446 92.5q125 0 216.5 -14.5t149.5 -45t94 -65.5t52.5 -92.5t21.5 -104.5t5 -123v-501q0 -53 9.5 -80t47.5 -58v-20h-440l-20 115 q-156 -145 -404 -146q-164 0 -273.5 83t-109.5 241zM287 1208q14 115 78.5 202t173.5 87q45 0 84 -10t91 -31.5t81 -30.5q53 -16 89 7.5t42 60.5h164q-16 -121 -79 -196.5t-177 -75.5q-86 0 -199 49q-41 18 -73 23t-49 1t-31.5 -20.5t-19.5 -28.5t-13 -37h-162zM492 301 q0 -41 36.5 -65.5t98.5 -24.5q106 0 151 72.5t37 191.5q-47 -23 -139 -41t-138 -45t-46 -88z" />
<glyph unicode="&#xe4;" d="M51 293q0 115 56.5 189.5t141.5 103t184 47t184 25t141.5 32t56.5 70.5q0 88 -139 88q-137 0 -150 -105h-409q0 176 139 268.5t446 92.5q125 0 216.5 -14.5t149.5 -45t94 -65.5t52.5 -92.5t21.5 -104.5t5 -123v-501q0 -53 9.5 -80t47.5 -58v-20h-440l-20 115 q-156 -145 -404 -146q-164 0 -273.5 83t-109.5 241zM283 1221v266h346v-266h-346zM492 301q0 -41 36.5 -65.5t98.5 -24.5q106 0 151 72.5t37 191.5q-47 -23 -139 -41t-138 -45t-46 -88zM750 1221v266h346v-266h-346z" />
<glyph unicode="&#xe5;" d="M51 293q0 115 56.5 189.5t141.5 103t184 47t184 25t141.5 32t56.5 70.5q0 88 -139 88q-137 0 -150 -105h-409q0 176 139 268.5t446 92.5q125 0 216.5 -14.5t149.5 -45t94 -65.5t52.5 -92.5t21.5 -104.5t5 -123v-501q0 -53 9.5 -80t47.5 -58v-20h-440l-20 115 q-156 -145 -404 -146q-164 0 -273.5 83t-109.5 241zM453 1444q0 94 68.5 161.5t162.5 67.5t161.5 -67.5t67.5 -161.5t-67.5 -162t-161.5 -68t-162.5 68t-68.5 162zM492 301q0 -41 36.5 -65.5t98.5 -24.5q106 0 151 72.5t37 191.5q-47 -23 -139 -41t-138 -45t-46 -88z M575 1444q0 -43 33 -75t76 -32t75 33t32 74t-32 73.5t-75 32.5t-76 -31.5t-33 -74.5z" />
<glyph unicode="&#xe6;" horiz-adv-x="2048" d="M78 299q0 68 20.5 121t60.5 88t83 59.5t108.5 41t113.5 24.5t118 16l104 13q150 23 150 92q0 57 -39 73.5t-121 16.5q-131 0 -144 -103h-399q8 176 157.5 269.5t362.5 93.5q268 0 404 -117q129 117 344 117q186 0 320 -97.5t190.5 -246t46.5 -320.5h-772 q-4 -92 44 -151.5t142 -59.5q133 0 168 90h387q-59 -190 -209 -274q-139 -76 -375 -76q-121 0 -212 42t-142 106q-201 -147 -463 -148q-211 0 -329.5 81t-118.5 249zM504 311q0 -47 34.5 -73.5t84.5 -26.5q121 0 170 67.5t38 200.5q-53 -29 -188 -57q-139 -29 -139 -111z M1184 657h368q-2 80 -50 133.5t-132 53.5q-86 0 -132 -52.5t-54 -134.5z" />
<glyph unicode="&#xe7;" d="M66 526q0 268 170 423t442 155q236 0 400.5 -108.5t187.5 -331.5h-432q-2 68 -46 110q-39 43 -110 43q-186 0 -186 -293q0 -125 47 -196.5t139 -71.5q143 0 166 160h430q-25 -221 -176.5 -328.5t-378.5 -116.5l-64 -102q29 12 123 4q70 -6 118 -62.5t28 -125.5 q-23 -76 -96.5 -118t-159.5 -42q-111 0 -269 57l43 94q18 -4 54 -16t65 -18.5t55 -6.5q51 0 82 23q43 33 19 80q-31 57 -113 41q-23 -4 -49 -17l-51 50l98 163q-240 18 -388 162.5t-148 388.5z" />
<glyph unicode="&#xe8;" d="M63 526q0 260 173.5 419t435.5 159q295 0 465 -184.5t166 -479.5h-814q0 -92 61.5 -151.5t149.5 -59.5q115 0 160 95h408q-51 -184 -217 -269.5t-377 -85.5q-268 0 -439.5 147.5t-171.5 409.5zM268 1511h426l205 -303h-281zM489 657h388q0 74 -56.5 130.5t-132.5 56.5 q-94 0 -146.5 -50.5t-52.5 -136.5z" />
<glyph unicode="&#xe9;" d="M63 526q0 260 173.5 419t435.5 159q295 0 465 -184.5t166 -479.5h-814q0 -92 61.5 -151.5t149.5 -59.5q115 0 160 95h408q-51 -184 -217 -269.5t-377 -85.5q-268 0 -439.5 147.5t-171.5 409.5zM477 1208l205 303h428l-352 -303h-281zM489 657h388q0 74 -56.5 130.5 t-132.5 56.5q-94 0 -146.5 -50.5t-52.5 -136.5z" />
<glyph unicode="&#xea;" d="M63 526q0 260 173.5 419t435.5 159q295 0 465 -184.5t166 -479.5h-814q0 -92 61.5 -151.5t149.5 -59.5q115 0 160 95h408q-51 -184 -217 -269.5t-377 -85.5q-268 0 -439.5 147.5t-171.5 409.5zM272 1208l248 303h336l250 -303h-303l-115 156l-115 -156h-301zM489 657h388 q0 74 -56.5 130.5t-132.5 56.5q-94 0 -146.5 -50.5t-52.5 -136.5z" />
<glyph unicode="&#xeb;" d="M63 526q0 260 173.5 419t435.5 159q295 0 465 -184.5t166 -479.5h-814q0 -92 61.5 -151.5t149.5 -59.5q115 0 160 95h408q-51 -184 -217 -269.5t-377 -85.5q-268 0 -439.5 147.5t-171.5 409.5zM283 1221v266h346v-266h-346zM489 657h388q0 74 -56.5 130.5t-132.5 56.5 q-94 0 -146.5 -50.5t-52.5 -136.5zM750 1221v266h346v-266h-346z" />
<glyph unicode="&#xec;" horiz-adv-x="681" d="M-74 1511h426l205 -303h-281zM127 0v1073h426v-1073h-426z" />
<glyph unicode="&#xed;" horiz-adv-x="681" d="M127 0v1073h426v-1073h-426zM135 1208l205 303h428l-352 -303h-281z" />
<glyph unicode="&#xee;" horiz-adv-x="681" d="M-70 1208l248 303h336l250 -303h-303l-115 156l-115 -156h-301zM127 0v1073h426v-1073h-426z" />
<glyph unicode="&#xef;" horiz-adv-x="681" d="M-59 1221v266h346v-266h-346zM127 0v1073h426v-1073h-426zM408 1221v266h346v-266h-346z" />
<glyph unicode="&#xf0;" d="M72 524q0 252 144 406.5t359 154.5q129 0 248 -65q-18 106 -71 190l-150 -63l-88 115l145 61q-43 39 -108 84l252 106q53 -37 102 -86l139 60l99 -111l-137 -57q127 -154 206.5 -353.5t79.5 -418.5q0 -283 -169 -430.5t-441 -147.5q-268 0 -439 144.5t-171 410.5z M498 547q0 -147 49 -219t135 -72q184 0 184 291q0 121 -49 197.5t-131 72.5q-98 0 -143 -80.5t-45 -189.5z" />
<glyph unicode="&#xf1;" d="M98 0v1073h389v-168q147 199 363 199q416 0 416 -461v-643h-426v567q0 201 -150 201q-94 0 -130 -55.5t-36 -165.5v-547h-426zM287 1208q14 115 78.5 202t173.5 87q45 0 84 -10t91 -31.5t81 -30.5q53 -16 89 7.5t42 60.5h164q-16 -121 -79 -196.5t-177 -75.5 q-86 0 -199 49q-41 18 -73 23t-49 1t-31.5 -20.5t-19.5 -28.5t-13 -37h-162z" />
<glyph unicode="&#xf2;" d="M72 524q0 274 165.5 427t442.5 153q283 0 447.5 -152.5t164.5 -404.5q0 -283 -169 -430.5t-441 -147.5q-268 0 -439 144.5t-171 410.5zM268 1511h426l205 -303h-281zM498 547q0 -147 49 -219t135 -72q184 0 184 291q0 121 -49 197.5t-131 72.5q-98 0 -143 -80.5 t-45 -189.5z" />
<glyph unicode="&#xf3;" d="M72 524q0 274 165.5 427t442.5 153q283 0 447.5 -152.5t164.5 -404.5q0 -283 -169 -430.5t-441 -147.5q-268 0 -439 144.5t-171 410.5zM477 1208l205 303h428l-352 -303h-281zM498 547q0 -147 49 -219t135 -72q184 0 184 291q0 121 -49 197.5t-131 72.5q-98 0 -143 -80.5 t-45 -189.5z" />
<glyph unicode="&#xf4;" d="M72 524q0 274 165.5 427t442.5 153q283 0 447.5 -152.5t164.5 -404.5q0 -283 -169 -430.5t-441 -147.5q-268 0 -439 144.5t-171 410.5zM272 1208l248 303h336l250 -303h-303l-115 156l-115 -156h-301zM498 547q0 -147 49 -219t135 -72q184 0 184 291q0 121 -49 197.5 t-131 72.5q-98 0 -143 -80.5t-45 -189.5z" />
<glyph unicode="&#xf5;" d="M72 524q0 274 165.5 427t442.5 153q283 0 447.5 -152.5t164.5 -404.5q0 -283 -169 -430.5t-441 -147.5q-268 0 -439 144.5t-171 410.5zM287 1208q14 115 78.5 202t173.5 87q45 0 84 -10t91 -31.5t81 -30.5q53 -16 89 7.5t42 60.5h164q-16 -121 -79 -196.5t-177 -75.5 q-86 0 -199 49q-41 18 -73 23t-49 1t-31.5 -20.5t-19.5 -28.5t-13 -37h-162zM498 547q0 -147 49 -219t135 -72q184 0 184 291q0 121 -49 197.5t-131 72.5q-98 0 -143 -80.5t-45 -189.5z" />
<glyph unicode="&#xf6;" d="M72 524q0 274 165.5 427t442.5 153q283 0 447.5 -152.5t164.5 -404.5q0 -283 -169 -430.5t-441 -147.5q-268 0 -439 144.5t-171 410.5zM283 1221v266h346v-266h-346zM498 547q0 -147 49 -219t135 -72q184 0 184 291q0 121 -49 197.5t-131 72.5q-98 0 -143 -80.5 t-45 -189.5zM750 1221v266h346v-266h-346z" />
<glyph unicode="&#xf7;" horiz-adv-x="1351" d="M160 406v237h1032v-237h-1032zM557 14v238h238v-238h-238zM557 797v237h238v-237h-238z" />
<glyph unicode="&#xf8;" d="M72 524q0 274 165.5 427t442.5 153q143 0 266 -45l84 131l103 -68l-76 -118q236 -145 235 -457q0 -283 -170 -430.5t-440 -147.5q-143 0 -254 41l-100 -157l-105 57l96 151q-247 137 -247 463zM498 547q0 -90 22 -164l256 405q-37 29 -94 29q-68 0 -111 -45t-58 -102 t-15 -123zM600 281q39 -25 82 -25q184 0 184 291q0 51 -20 125z" />
<glyph unicode="&#xf9;" d="M98 420v653h426v-579q0 -106 37 -150.5t117 -44.5q88 0 125 63.5t37 194.5v516h426v-1073h-396v158q-78 -109 -163.5 -149t-223.5 -40q-180 0 -282.5 113t-102.5 338zM268 1511h426l205 -303h-281z" />
<glyph unicode="&#xfa;" d="M98 420v653h426v-579q0 -106 37 -150.5t117 -44.5q88 0 125 63.5t37 194.5v516h426v-1073h-396v158q-78 -109 -163.5 -149t-223.5 -40q-180 0 -282.5 113t-102.5 338zM477 1208l205 303h428l-352 -303h-281z" />
<glyph unicode="&#xfb;" d="M98 420v653h426v-579q0 -106 37 -150.5t117 -44.5q88 0 125 63.5t37 194.5v516h426v-1073h-396v158q-78 -109 -163.5 -149t-223.5 -40q-180 0 -282.5 113t-102.5 338zM272 1208l248 303h336l250 -303h-303l-115 156l-115 -156h-301z" />
<glyph unicode="&#xfc;" d="M98 420v653h426v-579q0 -106 37 -150.5t117 -44.5q88 0 125 63.5t37 194.5v516h426v-1073h-396v158q-78 -109 -163.5 -149t-223.5 -40q-180 0 -282.5 113t-102.5 338zM283 1221v266h346v-266h-346zM750 1221v266h346v-266h-346z" />
<glyph unicode="&#xfd;" horiz-adv-x="1251" d="M12 1073h428l189 -661l186 661h410l-344 -1001q-33 -98 -52.5 -148.5t-52.5 -111t-64.5 -85t-85 -51t-120 -34t-162.5 -7.5q-45 0 -111.5 4.5t-76.5 4.5v297q16 0 44.5 -1t43.5 -1q100 0 126.5 34.5t-5.5 122.5zM420 1208l205 303h428l-353 -303h-280z" />
<glyph unicode="&#xfe;" d="M90 -365v1878h383v-600h4q41 92 137.5 141.5t198.5 49.5q231 0 355 -161t124 -398q0 -152 -44 -267.5t-117.5 -180t-159.5 -96.5t-180 -32q-166 0 -275 137v-471h-426zM508 547q0 -115 46 -183.5t128 -68.5q84 0 134 66.5t50 177.5q0 125 -49 187t-137 62q-76 0 -124 -66 t-48 -175z" />
<glyph unicode="&#xff;" horiz-adv-x="1251" d="M12 1073h428l189 -661l186 661h410l-344 -1001q-33 -98 -52.5 -148.5t-52.5 -111t-64.5 -85t-85 -51t-120 -34t-162.5 -7.5q-45 0 -111.5 4.5t-76.5 4.5v297q16 0 44.5 -1t43.5 -1q100 0 126.5 34.5t-5.5 122.5zM225 1221v266h346v-266h-346zM692 1221v266h346v-266h-346 z" />
<glyph unicode="&#x152;" horiz-adv-x="2048" d="M12 754q0 365 180.5 562t438.5 197t368 -174v136h983v-345h-598v-210h494v-345h-496v-231h627v-344h-1012v131q-61 -84 -161.5 -127t-210.5 -43q-289 0 -451 201t-162 592zM463 698q0 -178 61.5 -277t182.5 -99q68 0 115.5 30.5t73.5 74.5t41 110.5t18 117t3 115.5 q0 383 -243 383q-252 0 -252 -455z" />
<glyph unicode="&#x153;" horiz-adv-x="2048" d="M72 526q0 285 161.5 431.5t403.5 146.5q223 0 389 -117q182 117 383 117q186 0 320.5 -97.5t190.5 -246t46 -320.5h-776q0 -94 49 -152.5t141 -58.5q68 0 114 23.5t54 66.5h387q-45 -180 -213 -272q-139 -78 -327 -78q-111 0 -195 38t-178 110q-121 -147 -387 -148 q-264 0 -413.5 151.5t-149.5 405.5zM498 526q0 -59 6 -100t23.5 -83t56.5 -64.5t98 -22.5q55 0 92 24.5t53.5 70.5t21.5 87t5 97q0 137 -39 209.5t-135 72.5q-182 0 -182 -291zM1190 657h430q-2 84 -59.5 135.5t-151.5 51.5q-104 0 -159.5 -50.5t-59.5 -136.5z" />
<glyph unicode="&#x178;" horiz-adv-x="1593" d="M6 1475h541l254 -500l254 500h532l-549 -930v-545h-483v537zM397 1622v266h346v-266h-346zM864 1622v266h346v-266h-346z" />
<glyph unicode="&#x2c6;" horiz-adv-x="681" d="M-70 1208l248 303h336l250 -303h-303l-115 156l-115 -156h-301z" />
<glyph unicode="&#x2dc;" horiz-adv-x="681" d="M-55 1208q14 115 78.5 202t173.5 87q45 0 83.5 -10t91 -31.5t81.5 -30.5q53 -16 89 7.5t42 60.5h164q-16 -121 -79 -196.5t-177 -75.5q-86 0 -199 49q-41 18 -73 23t-49 1t-31.5 -20.5t-19.5 -28.5t-14 -37h-161z" />
<glyph unicode="&#x2000;" horiz-adv-x="1036" />
<glyph unicode="&#x2001;" horiz-adv-x="2074" />
<glyph unicode="&#x2002;" horiz-adv-x="1036" />
<glyph unicode="&#x2003;" horiz-adv-x="2074" />
<glyph unicode="&#x2004;" horiz-adv-x="690" />
<glyph unicode="&#x2005;" horiz-adv-x="518" />
<glyph unicode="&#x2006;" horiz-adv-x="344" />
<glyph unicode="&#x2007;" horiz-adv-x="344" />
<glyph unicode="&#x2008;" horiz-adv-x="258" />
<glyph unicode="&#x2009;" horiz-adv-x="413" />
<glyph unicode="&#x200a;" horiz-adv-x="114" />
<glyph unicode="&#x2010;" horiz-adv-x="681" d="M66 338v373h548v-373h-548z" />
<glyph unicode="&#x2011;" horiz-adv-x="681" d="M66 338v373h548v-373h-548z" />
<glyph unicode="&#x2012;" horiz-adv-x="681" d="M66 338v373h548v-373h-548z" />
<glyph unicode="&#x2013;" horiz-adv-x="1024" d="M0 383v283h1024v-283h-1024z" />
<glyph unicode="&#x2014;" horiz-adv-x="2048" d="M0 383v283h2048v-283h-2048z" />
<glyph unicode="&#x2018;" horiz-adv-x="569" d="M109 774v324q-6 182 106.5 301t267.5 114v-165q-84 -12 -125 -62q-39 -47 -39 -137h164v-375h-374z" />
<glyph unicode="&#x2019;" horiz-adv-x="569" d="M86 735v166q88 14 125 64q39 51 39 135h-164v375h375v-324q8 -182 -105.5 -300t-269.5 -116z" />
<glyph unicode="&#x201a;" horiz-adv-x="569" d="M86 0v375h375v-324q8 -182 -105.5 -301t-269.5 -115v166q88 14 125 64q39 51 39 135h-164z" />
<glyph unicode="&#x201c;" horiz-adv-x="1024" d="M84 774v324q-6 182 106.5 301t268.5 114v-165q-84 -12 -125 -62q-39 -47 -39 -137h164v-375h-375zM590 774v324q-6 182 106.5 301t268.5 114v-165q-84 -12 -125 -62q-39 -47 -39 -137h164v-375h-375z" />
<glyph unicode="&#x201d;" horiz-adv-x="1024" d="M59 735v166q88 14 125 64q39 51 39 135h-164v375h375v-324q8 -182 -105.5 -300t-269.5 -116zM565 735v166q88 14 125 64q39 51 39 135h-164v375h375v-324q8 -182 -105.5 -300t-269.5 -116z" />
<glyph unicode="&#x201e;" horiz-adv-x="1024" d="M59 0v375h375v-324q8 -182 -105.5 -301t-269.5 -115v166q88 14 125 64q39 51 39 135h-164zM565 0v375h375v-324q8 -182 -105.5 -301t-269.5 -115v166q88 14 125 64q39 51 39 135h-164z" />
<glyph unicode="&#x2022;" horiz-adv-x="1024" d="M166 739.5q0 143.5 100.5 243.5t243.5 100t244.5 -100t101.5 -243.5t-101.5 -245t-244.5 -101.5t-243.5 101.5t-100.5 245z" />
<glyph unicode="&#x2026;" horiz-adv-x="2048" d="M125 0v422h434v-422h-434zM807 0v422h434v-422h-434zM1489 0v422h434v-422h-434z" />
<glyph unicode="&#x202f;" horiz-adv-x="413" />
<glyph unicode="&#x2039;" horiz-adv-x="681" d="M154 373v299l374 246v-269l-206 -133l206 -121v-264z" />
<glyph unicode="&#x203a;" horiz-adv-x="681" d="M154 131v268l206 133l-206 121v265l374 -242v-299z" />
<glyph unicode="&#x205f;" horiz-adv-x="518" />
<glyph unicode="&#x20ac;" d="M8 455l76 180h154q-4 39 -5 117h-200l76 180h141q27 139 92.5 244.5t155.5 167t192.5 91t212.5 29.5q291 0 457 -180l-117 -289q-100 150 -303 150q-205 0 -256 -213h528l-73 -180h-477q-4 -78 0 -117h428l-74 -180h-324q63 -166 258 -166q229 0 330 143v-350 q-135 -113 -393 -113q-248 0 -405.5 131t-221.5 355h-252z" />
<glyph unicode="&#x2122;" horiz-adv-x="1945" d="M57 1315v160h703v-160h-252v-668h-199v668h-252zM860 647v828h291l186 -490l187 490h291v-828h-181v668h-4l-239 -668h-107l-240 668h-4v-668h-180z" />
<glyph unicode="&#xe000;" horiz-adv-x="1075" d="M0 1075h1075v-1075h-1075v1075z" />
<glyph unicode="&#xfb01;" d="M18 827v246h144q0 139 25.5 228.5t84 134.5t129 61t181.5 16h182v-268q-117 0 -150.5 -25.5t-27.5 -146.5h178v-246h-178v-827h-426v827h-142zM848 0v1073h426v-1073h-426zM848 1210v303h426v-303h-426z" />
<glyph unicode="&#xfb02;" d="M18 827v246h144q0 139 25.5 228.5t84 134.5t129 61t181.5 16h182v-268q-117 0 -150.5 -25.5t-27.5 -146.5h178v-246h-178v-827h-426v827h-142zM848 0v1475h426v-1475h-426z" />
<glyph unicode="&#xfb03;" horiz-adv-x="2275" d="M1720 0v1073h426v-1073h-426zM1720 1210v303h426v-303h-426zM815 827v246h144q0 139 25.5 228.5t84 134.5t129 61t181.5 16h182v-268q-117 0 -151 -25q-29 -22 -28 -112q0 -16 1 -35h178v-246h-178v-827h-426v827h-142zM18 827v246h144q0 139 25.5 228.5t84 134.5t129 61 t181.5 16h182v-268q-117 0 -151 -25q-29 -22 -28 -112q0 -16 1 -35h178v-246h-178v-827h-426v827h-142z" />
<glyph unicode="&#xfb04;" horiz-adv-x="2275" d="M1720 0v1475h426v-1475h-426zM815 827v246h144q0 139 25.5 228.5t84 134.5t129 61t181.5 16h182v-268q-117 0 -151 -25q-29 -22 -28 -112q0 -16 1 -35h178v-246h-178v-827h-426v827h-142zM18 827v246h144q0 139 25.5 228.5t84 134.5t129 61t181.5 16h182v-268 q-117 0 -151 -25q-29 -22 -28 -112q0 -16 1 -35h178v-246h-178v-827h-426v827h-142z" />
</font>
</defs>
</svg>
